<svg width="114" height="43" viewBox="0 0 114 43" fill="none" xmlns="http://www.w3.org/2000/svg">
<path d="M0 34.4746V11.8789H7.78923V34.4746H0Z" fill="#1E3A8A"/>
<path d="M0 34.4746V11.8789H7.78923V34.4746H0Z" fill="#1E3A8A"/>
<path d="M42.2182 19.3458V34.4639H34.4397V20.6152C34.4397 19.3806 34.2082 18.528 33.7586 18.0256C33.309 17.5259 32.785 17.28 32.2024 17.28C31.7395 17.28 31.3032 17.3896 30.8909 17.6221C30.4785 17.8653 30.162 18.2314 29.9305 18.7445C29.6991 19.2576 29.5767 19.9177 29.5767 20.6981V34.4613H21.7848V20.6126C21.7848 19.3779 21.5667 18.5254 21.1038 18.0229C20.6542 17.5232 20.1434 17.2773 19.5608 17.2773C19.0873 17.2773 18.6484 17.3869 18.2467 17.6194C17.8343 17.8626 17.5178 18.2287 17.273 18.7418C17.0416 19.255 16.9325 19.915 16.9325 20.6954V34.4586H9.14062V11.8683H16.7995V14.8347C16.8846 14.6877 16.9831 14.5541 17.0788 14.4205C17.8822 13.3328 18.8053 12.5524 19.8615 12.0634C20.9069 11.5743 21.9897 11.3418 23.0937 11.3418C24.0913 11.3418 25.0011 11.5262 25.8524 11.8923C26.7036 12.2585 27.4325 12.8437 28.0391 13.6508C28.3317 14.041 28.5871 14.4819 28.7919 14.9817C29.1191 14.4205 29.4836 13.9448 29.8986 13.5412C30.702 12.7475 31.5879 12.1863 32.5482 11.8442C33.5086 11.5021 34.4689 11.3445 35.4293 11.3445C36.3896 11.3445 37.2037 11.4915 38.0177 11.7828C38.8317 12.0741 39.55 12.5391 40.1805 13.1858C40.8136 13.8325 41.2978 14.6503 41.6623 15.6658C42.0267 16.6787 42.2103 17.9 42.2103 19.3405L42.2182 19.3458Z" fill="#1E3A8A"/>
<path d="M42.2182 19.3458V34.4639H34.4397V20.6152C34.4397 19.3806 34.2082 18.528 33.7586 18.0256C33.309 17.5259 32.785 17.28 32.2024 17.28C31.7395 17.28 31.3032 17.3896 30.8909 17.6221C30.4785 17.8653 30.162 18.2314 29.9305 18.7445C29.6991 19.2576 29.5767 19.9177 29.5767 20.6981V34.4613H21.7848V20.6126C21.7848 19.3779 21.5667 18.5254 21.1038 18.0229C20.6542 17.5232 20.1434 17.2773 19.5608 17.2773C19.0873 17.2773 18.6484 17.3869 18.2467 17.6194C17.8343 17.8626 17.5178 18.2287 17.273 18.7418C17.0416 19.255 16.9325 19.915 16.9325 20.6954V34.4586H9.14062V11.8683H16.7995V14.8347C16.8846 14.6877 16.9831 14.5541 17.0788 14.4205C17.8822 13.3328 18.8053 12.5524 19.8615 12.0634C20.9069 11.5743 21.9897 11.3418 23.0937 11.3418C24.0913 11.3418 25.0011 11.5262 25.8524 11.8923C26.7036 12.2585 27.4325 12.8437 28.0391 13.6508C28.3317 14.041 28.5871 14.4819 28.7919 14.9817C29.1191 14.4205 29.4836 13.9448 29.8986 13.5412C30.702 12.7475 31.5879 12.1863 32.5482 11.8442C33.5086 11.5021 34.4689 11.3445 35.4293 11.3445C36.3896 11.3445 37.2037 11.4915 38.0177 11.7828C38.8317 12.0741 39.55 12.5391 40.1805 13.1858C40.8136 13.8325 41.2978 14.6503 41.6623 15.6658C42.0267 16.6787 42.2103 17.9 42.2103 19.3405L42.2182 19.3458Z" fill="#1E3A8A"/>
<path d="M76.7058 19.338V34.4561H68.9272V20.6074C68.9272 19.3727 68.6957 18.5202 68.2462 18.0178C67.7966 17.5181 67.2725 17.2722 66.6899 17.2722C66.227 17.2722 65.7907 17.3818 65.3757 17.6143C64.9634 17.8575 64.6468 18.2236 64.4154 18.7367C64.1839 19.2498 64.0616 19.9099 64.0616 20.6903V34.4534H56.2697V20.6048C56.2697 19.3701 56.0515 18.5176 55.5887 18.0151C55.1391 17.5154 54.6283 17.2695 54.0457 17.2695C53.5722 17.2695 53.1332 17.3791 52.7315 17.6116C52.3192 17.8548 52.0026 18.2209 51.7579 18.734C51.5264 19.2471 51.4174 19.9072 51.4174 20.6876V34.4508H43.6255V11.8605H51.2844V14.8269C51.3695 14.6799 51.4679 14.5463 51.5637 14.4127C52.3671 13.325 53.2902 12.5446 54.3463 12.0555C55.3918 11.5665 56.4745 11.334 57.5785 11.334C58.5761 11.334 59.4859 11.5184 60.3372 11.8845C61.1885 12.2506 61.9174 12.8359 62.5239 13.643C62.8166 14.0332 63.072 14.4741 63.2768 14.9739C63.604 14.4127 63.9685 13.937 64.3835 13.5334C65.1869 12.7397 66.0727 12.1785 67.0331 11.8364C67.9934 11.4943 68.9538 11.3367 69.9141 11.3367C70.8745 11.3367 71.6885 11.4836 72.5026 11.7749C73.3166 12.0662 74.0349 12.5312 74.6654 13.178C75.2985 13.8247 75.7827 14.6425 76.1471 15.658C76.5116 16.6736 76.6951 17.8922 76.6951 19.3327L76.7058 19.338Z" fill="#1E3A8A"/>
<path d="M76.7058 19.338V34.4561H68.9272V20.6074C68.9272 19.3727 68.6957 18.5202 68.2462 18.0178C67.7966 17.5181 67.2725 17.2722 66.6899 17.2722C66.227 17.2722 65.7907 17.3818 65.3757 17.6143C64.9634 17.8575 64.6468 18.2236 64.4154 18.7367C64.1839 19.2498 64.0616 19.9099 64.0616 20.6903V34.4534H56.2697V20.6048C56.2697 19.3701 56.0515 18.5176 55.5887 18.0151C55.1391 17.5154 54.6283 17.2695 54.0457 17.2695C53.5722 17.2695 53.1332 17.3791 52.7315 17.6116C52.3192 17.8548 52.0026 18.2209 51.7579 18.734C51.5264 19.2471 51.4174 19.9072 51.4174 20.6876V34.4508H43.6255V11.8605H51.2844V14.8269C51.3695 14.6799 51.4679 14.5463 51.5637 14.4127C52.3671 13.325 53.2902 12.5446 54.3463 12.0555C55.3918 11.5665 56.4745 11.334 57.5785 11.334C58.5761 11.334 59.4859 11.5184 60.3372 11.8845C61.1885 12.2506 61.9174 12.8359 62.5239 13.643C62.8166 14.0332 63.072 14.4741 63.2768 14.9739C63.604 14.4127 63.9685 13.937 64.3835 13.5334C65.1869 12.7397 66.0727 12.1785 67.0331 11.8364C67.9934 11.4943 68.9538 11.3367 69.9141 11.3367C70.8745 11.3367 71.6885 11.4836 72.5026 11.7749C73.3166 12.0662 74.0349 12.5312 74.6654 13.178C75.2985 13.8247 75.7827 14.6425 76.1471 15.658C76.5116 16.6736 76.6951 17.8922 76.6951 19.3327L76.7058 19.338Z" fill="#1E3A8A"/>
<path d="M78.1423 42.9996H85.9342V25.8558H89.9565V20.4093H85.9342V19.2601C85.9342 18.5893 86.0912 18.0762 86.421 17.6967C86.7376 17.3413 87.15 17.0874 87.6501 16.9271C88.1369 16.7801 88.6477 16.7079 89.1824 16.7079C89.5229 16.7079 89.8395 16.7213 90.1188 16.732C90.3981 16.756 90.6908 16.7801 91.018 16.8416V11.7853C90.2891 11.5528 89.5708 11.4058 88.8658 11.3443C88.1742 11.2828 87.5783 11.2588 87.0781 11.2588C85.2904 11.2588 83.7342 11.6009 82.3987 12.2717C81.05 12.9424 80.0045 13.8831 79.2623 15.0804C78.5201 16.2884 78.145 17.6941 78.145 19.3056V42.9969L78.1423 42.9996Z" fill="#1E3A8A"/>
<path d="M78.1423 42.9996H85.9342V25.8558H89.9565V20.4093H85.9342V19.2601C85.9342 18.5893 86.0912 18.0762 86.421 17.6967C86.7376 17.3413 87.15 17.0874 87.6501 16.9271C88.1369 16.7801 88.6477 16.7079 89.1824 16.7079C89.5229 16.7079 89.8395 16.7213 90.1188 16.732C90.3981 16.756 90.6908 16.7801 91.018 16.8416V11.7853C90.2891 11.5528 89.5708 11.4058 88.8658 11.3443C88.1742 11.2828 87.5783 11.2588 87.0781 11.2588C85.2904 11.2588 83.7342 11.6009 82.3987 12.2717C81.05 12.9424 80.0045 13.8831 79.2623 15.0804C78.5201 16.2884 78.145 17.6941 78.145 19.3056V42.9969L78.1423 42.9996Z" fill="#1E3A8A"/>
<path d="M3.91858 7.86772C6.08127 7.86772 7.83448 6.10647 7.83448 3.93386C7.83448 1.76125 6.08127 0 3.91858 0C1.75589 0 0.00268555 1.76125 0.00268555 3.93386C0.00268555 6.10647 1.75589 7.86772 3.91858 7.86772Z" fill="#1E3A8A"/>
<path d="M3.91858 7.86772C6.08127 7.86772 7.83448 6.10647 7.83448 3.93386C7.83448 1.76125 6.08127 0 3.91858 0C1.75589 0 0.00268555 1.76125 0.00268555 3.93386C0.00268555 6.10647 1.75589 7.86772 3.91858 7.86772Z" fill="#1E3A8A"/>
<path d="M112.606 16.9302C111.678 15.1797 110.377 13.8034 108.706 12.7985C107.035 11.7964 105.056 11.2939 102.771 11.2939C100.486 11.2939 98.5359 11.7964 96.836 12.7985C95.1361 13.8061 93.8219 15.1744 92.8935 16.9088C91.9651 18.6459 91.5022 20.6342 91.5022 22.871C91.5022 24.5333 91.7656 26.078 92.2949 27.4971C92.8217 28.9188 93.5878 30.1428 94.5881 31.1797C95.5857 32.2113 96.7722 33.0157 98.1449 33.5903C99.5149 34.1649 101.058 34.4508 102.771 34.4508C104.484 34.4508 106.027 34.1649 107.4 33.5903C108.77 33.0184 109.948 32.214 110.935 31.1797C111.92 30.1455 112.678 28.9188 113.207 27.4971C113.734 26.078 114 24.5333 114 22.871C114 20.6609 113.537 18.6806 112.609 16.9302H112.606ZM102.713 26.3613C100.776 26.3613 99.2036 24.7845 99.2036 22.8363C99.2036 20.8881 100.773 19.3113 102.713 19.3113C104.652 19.3113 106.221 20.8881 106.221 22.8363C106.221 24.7845 104.652 26.3613 102.713 26.3613Z" fill="#1E3A8A"/>
<path d="M112.606 16.9302C111.678 15.1797 110.377 13.8034 108.706 12.7985C107.035 11.7964 105.056 11.2939 102.771 11.2939C100.486 11.2939 98.5359 11.7964 96.836 12.7985C95.1361 13.8061 93.8219 15.1744 92.8935 16.9088C91.9651 18.6459 91.5022 20.6342 91.5022 22.871C91.5022 24.5333 91.7656 26.078 92.2949 27.4971C92.8217 28.9188 93.5878 30.1428 94.5881 31.1797C95.5857 32.2113 96.7722 33.0157 98.1449 33.5903C99.5149 34.1649 101.058 34.4508 102.771 34.4508C104.484 34.4508 106.027 34.1649 107.4 33.5903C108.77 33.0184 109.948 32.214 110.935 31.1797C111.92 30.1455 112.678 28.9188 113.207 27.4971C113.734 26.078 114 24.5333 114 22.871C114 20.6609 113.537 18.6806 112.609 16.9302H112.606ZM102.713 26.3613C100.776 26.3613 99.2036 24.7845 99.2036 22.8363C99.2036 20.8881 100.773 19.3113 102.713 19.3113C104.652 19.3113 106.221 20.8881 106.221 22.8363C106.221 24.7845 104.652 26.3613 102.713 26.3613Z" fill="#1E3A8A"/>
</svg>
